<?xml version="1.0" standalone="no"?><!DOCTYPE svg PUBLIC "-//W3C//DTD SVG 1.1//EN" "http://www.w3.org/Graphics/SVG/1.1/DTD/svg11.dtd"><svg t="1645081929687" class="icon" viewBox="0 0 1024 1024" version="1.1" xmlns="http://www.w3.org/2000/svg" p-id="2864" xmlns:xlink="http://www.w3.org/1999/xlink" width="200" height="200"><defs><style type="text/css"></style></defs><path d="M512.002047 4.582356c187.817244 0 340.079786 152.253332 340.079785 340.078762 0 4.334716-0.112563 8.660223-0.270152 12.950938h-75.054243c0.208754-4.290714 0.313131-8.608035 0.313131-12.950938 0-146.401055-118.676676-265.077731-265.068521-265.077731-146.401055 0-265.081824 118.676676-265.081825 265.077731 0 4.342903 0.113587 8.660223 0.318248 12.950938h-75.049127a344.096255 344.096255 0 0 1-0.270152-12.950938C171.918168 156.835688 324.175593 4.582356 512.002047 4.582356z" fill="#1296db" p-id="2865"></path><path d="M63.227917 345.071463h897.537003c14.747859 0.775665 25.553951 8.947772 25.317568 25.308359l-0.130983 556.383771c-0.00921 50.96771-41.695551 92.653028-92.653028 92.653028H130.69436c-50.953384 0-92.644842-41.685318-92.653028-92.653028l-0.12689-556.383771c0.065491-16.551945 11.34128-25.325754 25.313475-25.308359z m383.666403 522.407004h130.20215l-29.442507-177.509502v-0.018419c37.483631-14.336491 64.100795-50.651509 64.100796-93.174913 0-55.100835-44.66825-99.757829-99.751689-99.757829-55.099812 0-99.760899 44.656993-99.760899 99.757829 0 42.523404 26.612048 78.838422 64.090563 93.174913v0.018419l-29.438414 177.509502z" fill="#1296db" p-id="2866"></path></svg>