<?xml version="1.0" standalone="no"?><!DOCTYPE svg PUBLIC "-//W3C//DTD SVG 1.1//EN" "http://www.w3.org/Graphics/SVG/1.1/DTD/svg11.dtd"><svg t="1646547229897" class="icon" viewBox="0 0 1024 1024" version="1.1" xmlns="http://www.w3.org/2000/svg" p-id="2045" xmlns:xlink="http://www.w3.org/1999/xlink" width="200" height="200"><defs><style type="text/css"></style></defs><path d="M0.000205 113.868959v796.262082A113.663955 113.663955 0 0 0 113.868959 1023.999795h796.262082A114.073554 114.073554 0 0 0 1023.999795 910.131041V113.868959A114.073554 114.073554 0 0 0 910.131041 0.000205H113.868959A113.663955 113.663955 0 0 0 0.000205 113.868959z m682.598127 227.532709A170.598332 170.598332 0 1 1 512 170.598537a170.393532 170.393532 0 0 1 170.598332 170.803131z m-511.999795 455.065418c0-113.868754 227.532709-176.332729 341.401463-176.332729s341.401463 61.439975 341.401463 176.332729v56.934377H170.598537v-56.934377z" p-id="2046" fill="#1296db"></path></svg>